<mxfile host="app.diagrams.net" modified="2021-08-11T09:54:31.910Z" agent="5.0 (Windows NT 10.0; Win64; x64) AppleWebKit/537.36 (KHTML, like Gecko) Chrome/92.0.4515.131 Safari/537.36" etag="Ar3gQ9QkLnfasHzPXUwu" version="14.9.6" type="github">
  <diagram id="hpCBtkaD7NBFvXRDDVOr" name="Page-1">
    <mxGraphModel dx="981" dy="526" grid="1" gridSize="10" guides="1" tooltips="1" connect="1" arrows="1" fold="1" page="1" pageScale="1" pageWidth="827" pageHeight="1169" math="0" shadow="0">
      <root>
        <mxCell id="0" />
        <mxCell id="1" parent="0" />
        <mxCell id="4CDYvGyoTkMnD9uVu69z-36" value="" style="rounded=0;whiteSpace=wrap;html=1;dashed=1;strokeColor=#007FFF;" vertex="1" parent="1">
          <mxGeometry x="420" y="350" width="380" height="160" as="geometry" />
        </mxCell>
        <mxCell id="4CDYvGyoTkMnD9uVu69z-17" style="edgeStyle=orthogonalEdgeStyle;rounded=0;orthogonalLoop=1;jettySize=auto;html=1;" edge="1" parent="1" source="4CDYvGyoTkMnD9uVu69z-2" target="4CDYvGyoTkMnD9uVu69z-10">
          <mxGeometry relative="1" as="geometry" />
        </mxCell>
        <mxCell id="4CDYvGyoTkMnD9uVu69z-26" style="edgeStyle=orthogonalEdgeStyle;rounded=0;orthogonalLoop=1;jettySize=auto;html=1;" edge="1" parent="1" source="4CDYvGyoTkMnD9uVu69z-2" target="4CDYvGyoTkMnD9uVu69z-4">
          <mxGeometry relative="1" as="geometry" />
        </mxCell>
        <mxCell id="4CDYvGyoTkMnD9uVu69z-2" value="slot存储mysql" style="shape=cylinder3;whiteSpace=wrap;html=1;boundedLbl=1;backgroundOutline=1;size=15;" vertex="1" parent="1">
          <mxGeometry x="260" y="360" width="100" height="50" as="geometry" />
        </mxCell>
        <mxCell id="4CDYvGyoTkMnD9uVu69z-27" style="edgeStyle=orthogonalEdgeStyle;rounded=0;orthogonalLoop=1;jettySize=auto;html=1;" edge="1" parent="1" source="4CDYvGyoTkMnD9uVu69z-4" target="4CDYvGyoTkMnD9uVu69z-6">
          <mxGeometry relative="1" as="geometry" />
        </mxCell>
        <mxCell id="4CDYvGyoTkMnD9uVu69z-4" value="slot在线服务/sdk" style="rounded=0;whiteSpace=wrap;html=1;" vertex="1" parent="1">
          <mxGeometry x="250" y="460" width="120" height="60" as="geometry" />
        </mxCell>
        <mxCell id="4CDYvGyoTkMnD9uVu69z-25" style="edgeStyle=orthogonalEdgeStyle;rounded=0;orthogonalLoop=1;jettySize=auto;html=1;entryX=1;entryY=0;entryDx=0;entryDy=30;entryPerimeter=0;" edge="1" parent="1" source="4CDYvGyoTkMnD9uVu69z-5" target="4CDYvGyoTkMnD9uVu69z-2">
          <mxGeometry relative="1" as="geometry" />
        </mxCell>
        <mxCell id="4CDYvGyoTkMnD9uVu69z-5" value="slot申请页面" style="shape=parallelogram;perimeter=parallelogramPerimeter;whiteSpace=wrap;html=1;fixedSize=1;" vertex="1" parent="1">
          <mxGeometry x="450" y="240" width="120" height="60" as="geometry" />
        </mxCell>
        <mxCell id="4CDYvGyoTkMnD9uVu69z-6" value="业务调用/获取&lt;br&gt;进行check" style="rounded=0;whiteSpace=wrap;html=1;" vertex="1" parent="1">
          <mxGeometry x="250" y="560" width="120" height="60" as="geometry" />
        </mxCell>
        <mxCell id="4CDYvGyoTkMnD9uVu69z-16" style="edgeStyle=orthogonalEdgeStyle;rounded=0;orthogonalLoop=1;jettySize=auto;html=1;entryX=0;entryY=0.5;entryDx=0;entryDy=0;entryPerimeter=0;" edge="1" parent="1" source="4CDYvGyoTkMnD9uVu69z-7" target="4CDYvGyoTkMnD9uVu69z-10">
          <mxGeometry relative="1" as="geometry" />
        </mxCell>
        <mxCell id="4CDYvGyoTkMnD9uVu69z-24" value="" style="edgeStyle=orthogonalEdgeStyle;rounded=0;orthogonalLoop=1;jettySize=auto;html=1;entryX=0.5;entryY=1;entryDx=0;entryDy=0;entryPerimeter=0;exitX=0.5;exitY=0;exitDx=0;exitDy=0;exitPerimeter=0;" edge="1" parent="1" source="4CDYvGyoTkMnD9uVu69z-7" target="4CDYvGyoTkMnD9uVu69z-8">
          <mxGeometry relative="1" as="geometry" />
        </mxCell>
        <mxCell id="4CDYvGyoTkMnD9uVu69z-7" value="检索日志&lt;br&gt;投递日志" style="shape=cylinder3;whiteSpace=wrap;html=1;boundedLbl=1;backgroundOutline=1;size=15;" vertex="1" parent="1">
          <mxGeometry x="150" y="280" width="60" height="80" as="geometry" />
        </mxCell>
        <mxCell id="4CDYvGyoTkMnD9uVu69z-20" style="edgeStyle=orthogonalEdgeStyle;rounded=0;orthogonalLoop=1;jettySize=auto;html=1;exitX=0.5;exitY=0;exitDx=0;exitDy=0;exitPerimeter=0;entryX=0.5;entryY=1;entryDx=0;entryDy=0;entryPerimeter=0;" edge="1" parent="1" source="4CDYvGyoTkMnD9uVu69z-8" target="4CDYvGyoTkMnD9uVu69z-18">
          <mxGeometry relative="1" as="geometry">
            <mxPoint x="250" y="150" as="targetPoint" />
          </mxGeometry>
        </mxCell>
        <mxCell id="4CDYvGyoTkMnD9uVu69z-8" value="检索dwd" style="shape=cylinder3;whiteSpace=wrap;html=1;boundedLbl=1;backgroundOutline=1;size=15;" vertex="1" parent="1">
          <mxGeometry x="150" y="160" width="60" height="80" as="geometry" />
        </mxCell>
        <mxCell id="4CDYvGyoTkMnD9uVu69z-23" style="edgeStyle=orthogonalEdgeStyle;rounded=0;orthogonalLoop=1;jettySize=auto;html=1;entryX=0;entryY=0.5;entryDx=0;entryDy=0;" edge="1" parent="1" source="4CDYvGyoTkMnD9uVu69z-10" target="4CDYvGyoTkMnD9uVu69z-21">
          <mxGeometry relative="1" as="geometry" />
        </mxCell>
        <mxCell id="4CDYvGyoTkMnD9uVu69z-10" value="未配置过滤检索日志" style="shape=cylinder3;whiteSpace=wrap;html=1;boundedLbl=1;backgroundOutline=1;size=15;" vertex="1" parent="1">
          <mxGeometry x="280" y="170" width="60" height="80" as="geometry" />
        </mxCell>
        <mxCell id="4CDYvGyoTkMnD9uVu69z-19" style="edgeStyle=orthogonalEdgeStyle;rounded=0;orthogonalLoop=1;jettySize=auto;html=1;entryX=0;entryY=0;entryDx=0;entryDy=52.5;entryPerimeter=0;" edge="1" parent="1" source="4CDYvGyoTkMnD9uVu69z-12" target="4CDYvGyoTkMnD9uVu69z-18">
          <mxGeometry relative="1" as="geometry" />
        </mxCell>
        <mxCell id="4CDYvGyoTkMnD9uVu69z-12" value="投递dwd" style="shape=cylinder3;whiteSpace=wrap;html=1;boundedLbl=1;backgroundOutline=1;size=15;" vertex="1" parent="1">
          <mxGeometry x="150" y="43" width="60" height="80" as="geometry" />
        </mxCell>
        <mxCell id="4CDYvGyoTkMnD9uVu69z-22" style="edgeStyle=orthogonalEdgeStyle;rounded=0;orthogonalLoop=1;jettySize=auto;html=1;entryX=0;entryY=0.5;entryDx=0;entryDy=0;" edge="1" parent="1" source="4CDYvGyoTkMnD9uVu69z-18" target="4CDYvGyoTkMnD9uVu69z-21">
          <mxGeometry relative="1" as="geometry" />
        </mxCell>
        <mxCell id="4CDYvGyoTkMnD9uVu69z-18" value="无检索有投递slot" style="shape=cylinder3;whiteSpace=wrap;html=1;boundedLbl=1;backgroundOutline=1;size=15;" vertex="1" parent="1">
          <mxGeometry x="273" y="30" width="60" height="80" as="geometry" />
        </mxCell>
        <mxCell id="4CDYvGyoTkMnD9uVu69z-21" value="定时检测落mysql/邮件" style="rounded=0;whiteSpace=wrap;html=1;" vertex="1" parent="1">
          <mxGeometry x="400" y="90" width="120" height="60" as="geometry" />
        </mxCell>
        <mxCell id="4CDYvGyoTkMnD9uVu69z-15" style="edgeStyle=orthogonalEdgeStyle;rounded=0;orthogonalLoop=1;jettySize=auto;html=1;exitX=0;exitY=0.5;exitDx=0;exitDy=0;exitPerimeter=0;entryX=0;entryY=0.5;entryDx=0;entryDy=0;entryPerimeter=0;" edge="1" parent="1" source="4CDYvGyoTkMnD9uVu69z-2" target="4CDYvGyoTkMnD9uVu69z-8">
          <mxGeometry relative="1" as="geometry">
            <mxPoint x="180" y="240" as="targetPoint" />
          </mxGeometry>
        </mxCell>
        <mxCell id="4CDYvGyoTkMnD9uVu69z-30" value="检索kafka" style="shape=step;perimeter=stepPerimeter;whiteSpace=wrap;html=1;fixedSize=1;" vertex="1" parent="1">
          <mxGeometry x="432" y="430" width="180" height="40" as="geometry" />
        </mxCell>
        <mxCell id="4CDYvGyoTkMnD9uVu69z-31" value="slot kafka" style="shape=step;perimeter=stepPerimeter;whiteSpace=wrap;html=1;fixedSize=1;" vertex="1" parent="1">
          <mxGeometry x="432" y="370" width="180" height="40" as="geometry" />
        </mxCell>
        <mxCell id="4CDYvGyoTkMnD9uVu69z-32" value="路飞直接查询" style="rounded=0;whiteSpace=wrap;html=1;" vertex="1" parent="1">
          <mxGeometry x="660" y="390" width="120" height="60" as="geometry" />
        </mxCell>
        <mxCell id="4CDYvGyoTkMnD9uVu69z-38" value="&lt;b&gt;实时校验部分&lt;/b&gt;" style="text;html=1;resizable=0;autosize=1;align=center;verticalAlign=middle;points=[];fillColor=none;strokeColor=none;rounded=0;dashed=1;" vertex="1" parent="1">
          <mxGeometry x="542" y="481" width="90" height="20" as="geometry" />
        </mxCell>
      </root>
    </mxGraphModel>
  </diagram>
</mxfile>
